<?xml version="1.0" encoding="UTF-8" standalone="no"?>
<svg
   xmlns:dc="http://purl.org/dc/elements/1.1/"
   xmlns:cc="http://creativecommons.org/ns#"
   xmlns:rdf="http://www.w3.org/1999/02/22-rdf-syntax-ns#"
   xmlns:svg="http://www.w3.org/2000/svg"
   xmlns="http://www.w3.org/2000/svg"
   xmlns:sodipodi="http://sodipodi.sourceforge.net/DTD/sodipodi-0.dtd"
   xmlns:inkscape="http://www.inkscape.org/namespaces/inkscape"
   width="104.09682mm"
   height="44.204536mm"
   viewBox="0 0 368.84699 156.63025"
   id="svg2"
   version="1.1"
   enable-background="new"
   inkscape:version="0.91pre4 r13712"
   sodipodi:docname="entera_logo_inverse.svg">
  <sodipodi:namedview
     pagecolor="#17a3aa"
     bordercolor="#666666"
     borderopacity="1"
     objecttolerance="10"
     gridtolerance="10"
     guidetolerance="10"
     inkscape:pageopacity="0"
     inkscape:pageshadow="2"
     inkscape:window-width="1214"
     inkscape:window-height="1002"
     id="namedview16"
     showgrid="false"
     inkscape:zoom="0.78081158"
     inkscape:cx="184.42349"
     inkscape:cy="78.315124"
     inkscape:window-x="-8"
     inkscape:window-y="-8"
     inkscape:window-maximized="1"
     inkscape:current-layer="svg2" />
  <defs
     id="defs4">
    <clipPath
       id="clipPath3384"
       clipPathUnits="userSpaceOnUse">
      <path
         id="path3386"
         d="m 0,0.0507813 3122,0 0,1421.9500187 -3122,0 L 0,0.0507813 Z" />
    </clipPath>
  </defs>
  <metadata
     id="metadata7">
    <rdf:RDF>
      <cc:Work
         rdf:about="">
        <dc:format>image/svg+xml</dc:format>
        <dc:type
           rdf:resource="http://purl.org/dc/dcmitype/StillImage" />
        <dc:title></dc:title>
      </cc:Work>
    </rdf:RDF>
  </metadata>
  <g
     id="layer1"
     transform="translate(-98.433643,-352.61854)"
     style="display:inline;opacity:1">
    <g
       transform="matrix(1.25,0,0,-1.25,-98.947357,993.99004)"
       id="g3344">
      <path
         id="path3346"
         style="fill:#ffffff;fill-opacity:1;fill-rule:nonzero;stroke:none"
         d="m 421.3867,513.0972 c 12.4024,-11.3609 19.5039,-24.5567 19.5039,-38.6275 0,-42.6748 -65.2812,-77.2724 -145.8091,-77.2724 -46.268,0 -87.4961,11.4297 -114.2065,29.2441 25.2075,-23.0996 72.3271,-38.6484 126.3047,-38.6484 80.5254,0 145.8027,34.5937 145.8027,77.2675 0,18.1622 -11.8164,34.8453 -31.5957,48.0367 z" />
      <path
         id="path3348"
         style="fill:#ffffff;fill-opacity:1;fill-rule:nonzero;stroke:none"
         d="m 205.7612,459.6152 c 3.5308,16.0254 -4.9765,28.0733 -20.6733,28.0733 -15.1358,0 -27.1831,-12.2627 -27.1831,-27.627 0,-14.8154 9.7256,-24.4228 24.98,-24.4228 5.1977,0 11.2715,1.3203 17.457,3.6386 l 2.6553,12.4903 c -8.1802,-3.3086 -13.9268,-5.086 -18.5699,-5.086 -7.1796,0 -12.2656,4.752 -11.4956,12.9336 l 32.8296,0 m -31.3901,8.6192 c 2.2095,6.3027 5.5283,9.1767 10.3896,9.1767 5.0855,0 8.065,-3.7568 7.1831,-9.1767 l -17.5727,0 z" />
      <path
         id="path3350"
         style="fill:#ffffff;fill-opacity:1;fill-rule:nonzero;stroke:none"
         d="m 228.019,486.8066 -14.9174,0 -7.0708,-50.1816 14.9174,0 4.5342,32.2695 c 5.0825,5.4239 9.1743,7.7393 12.5991,7.7393 3.9761,0 5.0796,-5.1924 4.419,-10.0537 l -4.2007,-29.9551 14.9175,0 4.3159,31.0576 c 1.4395,10.2832 -1.6641,20.0059 -13.2598,20.0059 -6.083,0 -11.0532,-1.8775 -17.1333,-6.5176 l 0.8789,5.6357 z" />
      <path
         id="path3352"
         style="fill:#ffffff;fill-opacity:1;fill-rule:nonzero;stroke:none"
         d="m 284.3828,509.1147 -2.8579,0 -14.0508,-12.1459 -97.9707,0 -1.5366,-6.4449 97.6284,0 -5.8769,-33.895 c -1.8824,-10.4922 2.8701,-20.9902 15.2509,-20.9902 4.419,0 8.5225,1.1816 13.3809,3.4961 0,0 -2.6792,2.4101 -3.9219,4.3105 -1.4243,2.166 -2.5884,6.1231 -2.5884,6.1231 -1.5786,-0.5899 -1.5727,-0.5625 -2.6699,-0.5625 -4.2007,0 -5.0888,4.8623 -4.0918,10.498 l 5.2134,31.02 139.0679,0 1.2949,6.4449 -138.3716,0 2.1001,12.1459 z" />
      <path
         id="path3354"
         style="fill:#ffffff;fill-opacity:1;fill-rule:nonzero;stroke:none"
         d="m 331.0723,459.6152 c 3.5371,16.0254 -4.9727,28.0733 -20.666,28.0733 -15.1431,0 -27.1841,-12.2627 -27.1841,-27.627 0,-14.8154 9.7226,-24.4228 24.9731,-24.4228 5.1914,0 11.2715,1.3203 17.461,3.6386 l 2.6523,12.4903 c -8.1738,-3.3086 -13.9277,-5.086 -18.5645,-5.086 -7.1855,0 -12.2714,4.752 -11.4961,12.9336 l 32.8243,0 m -31.3868,8.6192 c 2.209,6.3027 5.5254,9.1767 10.3887,9.1767 5.084,0 8.0684,-3.7568 7.1875,-9.1767 l -17.5762,0 z" />
      <path
         id="path3356"
         style="fill:#ffffff;fill-opacity:1;fill-rule:nonzero;stroke:none"
         d="m 352.4297,486.8066 -14.9199,0 -7.0762,-50.1816 14.9199,0 4.1973,29.8438 c 1.6582,3.3154 5.5293,7.2949 9.0683,7.2949 2.4278,0 4.5274,-1.6582 7.0704,-5.4141 l 6.9628,13.814 c -3.4257,3.9746 -5.9648,5.5249 -8.9531,5.5249 -3.6465,0 -7.5137,-2.5396 -12.1562,-8.2881 l -0.2227,0.2226 1.1094,7.1836 z" />
      <path
         id="path3358"
         style="fill:#ffffff;fill-opacity:1;fill-rule:nonzero;stroke:none"
         d="m 418.666,486.0352 c -6.1933,1.2109 -10.6113,1.6533 -16.9101,1.6533 -27.0762,0 -36.3594,-15.916 -36.3594,-30.5 0,-12.5987 7.4004,-21.5498 17.5683,-21.5498 5.1954,0 9.6172,1.7636 14.4825,5.6308 l -0.6641,-4.6445 14.9199,0 6.9629,49.4102 m -19.7832,-34.8184 c -3.4277,-2.8711 -7.3008,-4.4219 -10.7226,-4.4219 -4.5313,0 -7.295,3.5371 -7.295,9.6153 0,6.1914 2.7637,20.5566 21.3301,18.6757 l -3.3125,-23.8691 z" />
    </g>
  </g>
</svg>
